<?xml version="1.0" encoding="UTF-8"?>
<svg id="Layer_1" xmlns="http://www.w3.org/2000/svg" version="1.1" viewBox="0 0 638.1 289.6">
  <!-- Generator: Adobe Illustrator 29.1.0, SVG Export Plug-In . SVG Version: 2.1.0 Build 142)  -->
  <defs>
    <style>
      .st0 {
        fill: #231f20;
      }

      .st1 {
        fill: #ffde2f;
      }

      .st2 {
        fill: #d93a43;
      }
    </style>
  </defs>
  <path class="st0" d="M70.6,58.4c3.4,0,7,5.2,4.1,12.9-2.3,5.7-12.7,34.9-14.1,39-.5,2.5-.7,3.9.2,4.8.9.7,2.5-.5,4.5-2.7,15-16.6,40.6-44.9,43.5-47.8,2.9-2.9,5.2-4.1,6.6-4.1,2.9,0,6.3,4.3,6.3,8.4-.2,2.3-1.4,3.4-3.6,5.2-1.4,1.4-2.9,2.7-4.5,5.7-2.7,5.2-7,17-9.3,30.8-2,12.9-.9,19.3,6.1,19.3s22-10.7,42.2-36.7c1.8-2,3.2-2,3.9-.7.5,1.4-.2,3.9-2.5,7.5-18.1,29.2-37.4,40.8-48.1,40.8s-15.6-8.8-13.4-26.5c1.1-9.1,3.2-16.8,4.8-22.4.5-2.5-.2-2.9-2.7-.2-7.9,9.1-30.4,34.5-37,41.3-4.5,4.5-6.8,6.1-9.1,6.1-3.9,0-4.5-9.3-1.4-20.6,1.4-5.7,7-23.4,8.6-28.6,1.1-3.4,1.1-4.8,0-5.4-.7-.5-2.3.5-4.1,2.3-5.2,3.6-33.6,39.5-39.7,46.9-3.2,3.6-5.7,5.9-7.5,5.9-3.2,0-5.4-5-4.3-15.4.9-5.9.2-1.7,2.4-10.3.5-1.8.8-4.7,2-8.7,1.4-5,2-9.8,6.5-9.8s2.8.6,4.1,2.3c1.9,2.5,2.7,5.3,1.2,8.8-4,8.9-4.5,3.5-6,12.1-1.1,6.1,1.1,3.7,3.8.3,11.1-13.6,25.2-32,36.8-43.5,6.1-6.3,9.3-9.3,12.5-12.2,3.2-2.9,5.4-4.3,6.8-4.3h.2Z"/>
  <path class="st0" d="M187.2,60.1c2.2,0,4.4,2.6,5.7,4.4.2.9,1.1,1.1,2,.4,1.5-1.1,2.9-1.1,4.2-.2,3.3,2,3.1,4.2,2,6.4-6.6,14.6-10.8,27.3-10.8,39.9s1.3,17.2,6.6,17.2c9.3,0,26.5-19.8,37-34.4,1.3-2.2,3.3-2,3.3-.2s-.7,4.6-2,7.7c-8.2,16.1-31.3,38.4-42.8,38.4s-11.7-6.8-12.6-15.9c-.4-4.6-.7-10.8-.7-13.2s-.4-1.8-1.8-.4c-3.1,4.2-15.4,17.9-21.4,22.9-5.3,4.6-9.5,6.6-12.8,6.6s-9.3-2.6-9.3-10.8,1.3-10.8,8.4-24c5.7-11.5,16.1-26.2,26.9-35.5,9-8.2,15.2-9.3,17.6-9.3h.2ZM180.8,72c-3.1,0-7.7,4-13.7,11.2-10.6,12.3-16.8,27.3-19,35.3-1.3,4.2-.4,7.5,2.4,7.5s5.1-2.4,9.3-6.2c3.7-3.5,9.9-11.2,16.5-20.1,2.6-3.7,7.3-13.2,8.2-14.8.9-2.2,1.5-5.5,1.1-8.2-.4-2.6-1.8-4.9-4.6-4.9h-.2Z"/>
  <path class="st0" d="M273.6,60.1c6.4,0,9.7,4.6,9.7,8.4s-4,8.2-6.6,9.7c-2.4,1.3-4.2,1.5-5.3.7-1.1-.9-1.5-2.4-.9-4.2.2-2.4-1.1-3.7-3.3-3.7-4.6,0-13,7.1-18.3,14.8-8.6,12.1-10.4,23.4-10.4,30.2s4.6,13.4,10.8,13.4c16.3,0,40.8-18.3,53.1-31.5,1.8-2,3.3-2,4-.4.4,1.5-.4,4-2.4,6.8-13.9,18.3-41.4,35.5-60,35.5s-18.7-4.6-18.7-21.2,4.4-25.8,16.5-39.9c9-10.4,22.5-18.5,31.5-18.5h.2Z"/>
  <path class="st0" d="M366,60.1c2,0,3.5.7,5.1,2.2,2,2.4,1.5,4.4-1.5,7.7-1.8,1.3-3.3,1.3-6,1.5-11.9.7-27.1,15.7-31.5,20.5-2.2,2.6-3.1,4.4-.9,8.6,3.5,7.9,16.1,29.5,24,29.5,11.5,0,24.9-18.1,31.1-26.9,1.5-2,3.3-2,4-.4.4,1.8-.2,4-2,7.1-11.5,20.5-27.8,30.9-37,30.9s-11.2-4.4-16.8-12.6c-4.4-6.8-7.7-12.1-11.5-18.1-3.3-4.6-5.5-4.6-8.8-1.3-6,6.4-7.9,12.6-9,21.4-.9,5.1-5.5,8.6-9,8.6s-2.9-1.1-3.3-4.2c-.2-2.6,0-5.5,1.8-12.8,2.4-9,8.4-33.1,20.1-65.3,8.2-22.5,15.7-37.7,19.8-44.5,2.9-4.6,5.1-6.4,7.5-6.4s3.7.9,5.3,2.6c1.5,2.2,2,4,0,6.8-14.8,20.3-29.3,62.8-34.6,81.8-.7,2.9.2,3.1,2,1.1,4-4,21.4-21.8,34-30.2,9.5-6.4,13.4-7.7,17.2-7.7h.2Z"/>
  <path class="st0" d="M429,60.1c2.2,0,4.4,2.6,5.7,4.4.2.9,1.1,1.1,2,.4,1.5-1.1,2.9-1.1,4.2-.2,3.3,2,3.1,4.2,2,6.4-6.6,14.6-10.8,27.3-10.8,39.9s1.3,17.2,6.6,17.2c9.3,0,26.5-19.8,37-34.4,1.3-2.2,3.3-2,3.3-.2s-.7,4.6-2,7.7c-8.2,16.1-31.3,38.4-42.8,38.4s-11.7-6.8-12.6-15.9c-.4-4.6-.7-10.8-.7-13.2s-.4-1.8-1.8-.4c-3.1,4.2-15.4,17.9-21.4,22.9-5.3,4.6-9.5,6.6-12.8,6.6s-9.3-2.6-9.3-10.8,1.3-10.8,8.4-24c5.7-11.5,16.1-26.2,26.9-35.5,9-8.2,15.2-9.3,17.6-9.3h.2ZM422.6,72c-3.1,0-7.7,4-13.7,11.2-10.6,12.3-16.8,27.3-19,35.3-1.3,4.2-.4,7.5,2.4,7.5s5.1-2.4,9.3-6.2c3.7-3.5,9.9-11.2,16.5-20.1,2.6-3.7,7.3-13.2,8.2-14.8.9-2.2,1.5-5.5,1.1-8.2-.4-2.6-1.8-4.9-4.6-4.9h-.2Z"/>
  <path class="st0" d="M473.1,85c.2-4.6-.2-6.4-.4-7.7-.4-2-.4-4.6.7-7.1,1.8-3.3,4.9-10.6,8.6-10.6s4.4,12.1,4,18.1c-.4,7.5-2.9,27.1-3.3,34.4-.7,8.2,1.8,11.7,4,11.7,4.6,0,13.4-10.1,25.1-31.5,4.9-8.4,4.6-11,4.4-12.8-.2-2.2-.4-4.4,1.3-7.3,2-3.3,3.1-5.7,5.3-9.7,1.5-3.1,3.1-4,4.9-4s5.5,4.6,5.5,8.4-1.5,8.2-4.2,14.1c-3.5,8.2-17.2,32.8-27.1,45-24.3,29.5-39.5,50-43.9,56.4-1.1,1.8-1.3,2.6-.4,2.9,2.4.7,3.7,1.8,3.7,3.5,0,4.4-12.3,10.6-15.7,12.3-3.7,1.5-5.3,3.3-6.6,5.5-3.1,4.8-5.7,8.2-9.5,8.2s-5.3-2.2-4.2-5.7c.9-3.7,2.4-6.4,6.2-11.5,4.4-5.7,7.3-7.3,9-7.9,1.8-.7,2.9-1.8,3.5-3.1,1.1-2.2,7.7-13,15-21.8,4.6-5.7,19-24.9,23.6-30.6,1.1-1.1,1.1-1.3-.4-.9-2.2.7-3.7.9-4.9.9-4,0-5.7-5.5-5.5-19.6l1.3-29.5Z"/>
  <path class="st0" d="M578.3,60.6c3.3,0,5.7.4,7.7,1.5,2.2,1.3,3.5,3.1,3.5,4.8,0,2.6-3.1,4-6.8,4-12.3,0-27.3,10.4-27.3,19.2s2,8.4,5.5,13c4.4,6.4,8.2,13.4,8.2,19s-2.6,8.6-5.5,10.8c-3.3,2.6-10.1,6.4-14.8,8.2-2.6,1.1-5.5,1.8-7.5,1.8-3.1,0-8.4-2-8.8-5.5.2-1.3.7-2.9,2.2-4.2,2.6-2.6,4.6-4.2,6.6-5.1,2-.7,3.1-.7,4.4.2,2,.9,4,1.5,6.8.9,2.4-.4,5.3-2.4,5.3-4.8s-1.8-7.1-4.2-10.8c-2.9-4.4-6.4-9.7-7.7-12.8-1.3-2.6-2.2-6-2.2-8.8,0-7.7,6.6-17,13.4-22.7,6-5.1,14.6-8.6,20.9-8.6h.2Z"/>
  <path class="st2" d="M405.3,248.1c-13.7-5.2-16.9-16.3,2-14.3,30.9,3.2,71.4-3.1,102.9-18.2,114.2-60.9,112.7-176.8,114.5-159.8,12.6,130-153.9,216.9-219.3,192.3Z"/>
  <path class="st1" d="M445.2,283.4c-14.3-3.1-19.1-13.7-.2-14.5,31.1-1.3,70.1-13.3,99.1-32.7,104-76.6,85.4-191,89.7-174.5,31.6,126.9-120.2,236.6-188.6,221.6Z"/>
  <text/>
</svg>